<svg version="1.1" id="Layer_1" xmlns="http://www.w3.org/2000/svg" x="0" y="0" viewBox="0 0 558.9 87.6" xml:space="preserve"><style>.st2{fill:#008c80;opacity:.5;enable-background:new}</style><path d="M49.9 19.6l-1.1-1-1.1 1c-3.9 3.5-6.2 8.4-6.2 13.6 0 5.2 2.3 10.1 6.2 13.6l1.1 1 1.1-1c3.9-3.5 6.2-8.4 6.2-13.6 0-5.2-2.2-10.1-6.2-13.6zm-1.1 23.7c-2.6-2.8-4-6.4-4-10.1 0-3.7 1.4-7.3 4-10.1 2.6 2.8 4 6.4 4 10.1 0 3.7-1.4 7.3-4 10.1zm11.9 9.4c2.7 0 5.2-.7 7.5-2.1 4.2-2.5 7-7.1 7.9-12.5l.2-1.2-1.2-.5c-2.1-1-4.4-1.4-6.6-1.4-2.7 0-5.2.7-7.5 2.1-4.2 2.5-7 7.1-7.9 12.5l-.2 1.2 1.2.5c2.2.9 4.4 1.4 6.6 1.4zm2.1-12.9c1.8-1.1 3.8-1.6 5.8-1.6 1.3 0 2.7.2 4 .7-.9 3.9-3.1 7.2-6.1 9-1.8 1.1-3.8 1.6-5.8 1.6-1.3 0-2.7-.2-4-.7.9-4 3.1-7.2 6.1-9zM58 32.7l.4 1.5 1.5-.3c5.3-1.1 10-4.6 12.9-9.6 2.9-5 3.7-11.1 2.3-16.7l-.4-1.5-1.5.3c-5.3 1.1-10 4.6-12.9 9.6-2.8 5-3.6 11.1-2.3 16.7zm5.2-15.1c2.1-3.7 5.4-6.4 9.1-7.6.7 4.4-.1 8.9-2.3 12.7-2.1 3.7-5.4 6.4-9.1 7.6-.7-4.4.1-8.9 2.3-12.7zm17 32.6c-1-.2-1.9-.3-2.9-.3-3.3 0-6.6 1.3-9.3 3.7l-.9.8.5 1.1c2 4.4 5.6 7.5 9.8 8.5 1 .2 1.9.3 2.9.3 3.3 0 6.6-1.3 9.3-3.7l.9-.8-.5-1.1c-2.1-4.5-5.6-7.6-9.8-8.5zm.1 10.8c-.7 0-1.4-.1-2.1-.3-2.8-.7-5.3-2.7-7-5.6 1.9-1.4 4-2.1 6.1-2.1.7 0 1.4.1 2.1.3 2.8.7 5.3 2.7 7 5.6-1.9 1.4-4 2.1-6.1 2.1zm16.5-22.7c-2.4-2.1-5.3-3.2-8.2-3.2-.9 0-1.8.1-2.8.3-3.7.9-6.9 3.7-8.6 7.7l-.5 1.1.9.8c2.4 2.1 5.3 3.2 8.2 3.2.9 0 1.8-.1 2.8-.3 3.7-.9 6.9-3.7 8.6-7.7l.5-1.1-.9-.8zm-9 6.4c-.6.2-1.3.2-2 .2-1.7 0-3.5-.6-5-1.6 1.4-2.4 3.5-4.1 5.8-4.7 2.4-.6 4.8-.1 7 1.4-1.4 2.4-3.5 4.1-5.8 4.7zM53.5 19.5l1 .9 1.1-.8c2.9-2.3 4.6-5.7 4.7-9.2.1-3.5-1.5-6.9-4.3-9.4l-1-.9-1.1.8c-2.9 2.3-4.6 5.7-4.7 9.2s1.5 7 4.3 9.4zm1.4-15c1.4 1.7 2.2 3.7 2.2 5.8 0 2.1-.9 4.1-2.4 5.7-1.4-1.7-2.2-3.7-2.2-5.8 0-2.1.8-4.1 2.4-5.7zm18 27.6l1.2.4c1.3.4 2.6.6 3.9.6 2.7 0 5.2-.9 7.3-2.5 3.1-2.4 5-6.2 5.2-10.6l.1-1.3-1.2-.4c-1.3-.4-2.6-.6-3.9-.6-2.7 0-5.2.9-7.3 2.5-3.1 2.4-5 6.2-5.2 10.6l-.1 1.3zm7.3-9.3c1.9-1.5 4.4-2.1 6.8-1.7-.5 2.9-1.8 5.3-3.8 6.9-1.5 1.2-3.3 1.8-5.2 1.8-.5 0-1.1 0-1.6-.1.5-2.9 1.8-5.3 3.8-6.9zM56.5 55c-.6 0-1.2 0-1.8.1l-1.3.1-.1 1.3c-.6 5.5 1 10.7 4.3 14.4 3 3.3 7.1 5.1 11.5 5.1.6 0 1.2 0 1.8-.1l1.3-.1.1-1.3c.6-5.5-1-10.7-4.3-14.4-2.9-3.2-7-5.1-11.5-5.1zm12.7 17.9c-.1 0-.1 0 0 0-.1 0-.1 0 0 0-3.6 0-6.8-1.4-9.2-4-2.4-2.7-3.7-6.5-3.6-10.5h.1c3.5 0 6.8 1.4 9.1 4 2.4 2.6 3.7 6.4 3.6 10.5zM36.6 37c-2.3-1.4-4.8-2.1-7.5-2.1-2.2 0-4.4.5-6.6 1.4l-1.2.5.2 1.2c.9 5.5 3.8 10 7.9 12.5 2.3 1.4 4.8 2.1 7.5 2.1 2.2 0 4.4-.5 6.6-1.4l1.2-.5-.2-1.2c-.9-5.4-3.8-10-7.9-12.5zm.4 12.5c-2.1 0-4.1-.6-5.8-1.6-3-1.8-5.2-5.1-6.1-9 1.3-.5 2.7-.7 4-.7 2.1 0 4.1.6 5.8 1.6 3 1.8 5.2 5.1 6.1 9-1.3.4-2.7.7-4 .7zm.7-15.6l1.5.3.4-1.5c1.4-5.6.5-11.7-2.3-16.7-2.9-5-7.6-8.5-12.9-9.6l-1.5-.3-.4 1.5c-1.4 5.6-.5 11.7 2.3 16.7 2.9 5 7.6 8.5 12.9 9.6zM25.3 10c3.7 1.2 7 3.9 9.1 7.6 2.2 3.8 3 8.3 2.3 12.7-3.7-1.2-7-3.9-9.1-7.6-2.1-3.8-2.9-8.3-2.3-12.7zM30 55.4l.5-1.1-.9-.8c-2.7-2.4-6-3.7-9.3-3.7-1 0-1.9.1-2.9.3-4.2 1-7.7 4.1-9.8 8.5l-.5 1.1.9.8c2.7 2.4 6 3.7 9.3 3.7 1 0 1.9-.1 2.9-.3 4.3-.9 7.8-4 9.8-8.5zm-10.5 5.4c-.7.2-1.4.3-2.1.3-2.1 0-4.2-.7-6.1-2.1 1.6-2.9 4.1-4.9 7-5.6.7-.2 1.4-.3 2.1-.3 2.1 0 4.2.7 6.1 2.1-1.7 2.9-4.1 4.9-7 5.6zm-7.6-12.6c2.9 0 5.7-1.1 8.2-3.2l.9-.8-.5-1.1c-1.8-4-4.9-6.8-8.6-7.7-.9-.2-1.8-.3-2.8-.3-2.9 0-5.7 1.1-8.2 3.2l-.9.8.5 1.1c1.8 4 4.9 6.8 8.6 7.7.9.2 1.8.3 2.8.3zM4.1 40c2.2-1.5 4.6-2 7-1.4s4.5 2.3 5.8 4.7c-2.2 1.5-4.6 2-7 1.4S5.4 42.4 4.1 40zm38-20.5l1.1.8 1-.9c2.8-2.4 4.4-5.8 4.3-9.4-.1-3.5-1.8-6.9-4.7-9.2L42.7 0l-1 .9c-2.8 2.4-4.4 5.8-4.3 9.4s1.8 6.9 4.7 9.2zm.7-15c1.5 1.6 2.3 3.6 2.4 5.7 0 2.1-.7 4.2-2.2 5.8-1.5-1.6-2.3-3.6-2.4-5.7 0-2.2.8-4.2 2.2-5.8zM12.4 30.6c2.1 1.6 4.6 2.5 7.3 2.5 1.3 0 2.6-.2 3.9-.6l1.2-.4-.1-1.3c-.3-4.4-2.2-8.2-5.2-10.6-2.1-1.6-4.6-2.5-7.3-2.5-1.3 0-2.6.2-3.9.6l-1.2.4.1 1.3c.2 4.4 2.2 8.2 5.2 10.6zm5-7.8c2 1.6 3.4 4 3.8 6.9-2.5.4-4.9-.2-6.8-1.7-2-1.6-3.4-4-3.8-6.9 2.5-.4 4.9.2 6.8 1.7zm26.9 32.5l-1.3-.1c-.6-.1-1.2-.1-1.8-.1-4.5 0-8.6 1.8-11.5 5.1-3.3 3.7-4.9 8.9-4.3 14.4l.1 1.3 1.3.1c.6.1 1.2.1 1.8.1 4.5 0 8.6-1.8 11.5-5.1 3.3-3.7 4.9-8.9 4.3-14.4l-.1-1.3zm-6.6 13.5c-2.3 2.6-5.6 4-9.1 4h-.1c-.1-4 1.2-7.8 3.6-10.5 2.3-2.6 5.6-4 9.1-4h.1c.1 4.1-1.2 7.8-3.6 10.5zm9.5-14.9h3.3V86h-3.3zm11.2 30.4c-1.6 0-2.9-1.3-2.9-2.9v-10h-3.3v10c0 3.4 2.8 6.2 6.2 6.2h11.9v-3.3H58.4zm-16.3-2.9c0 1.6-1.3 2.9-2.9 2.9H27.3v3.3h11.9c3.4 0 6.2-2.8 6.2-6.2v-10h-3.3v10z" fill="#008c80"/><g opacity=".75"><ellipse class="st2" cx="48.8" cy="36.9" rx="4.4" ry="10"/><ellipse transform="rotate(-30.563 63.019 47.315)" class="st2" cx="63" cy="47.3" rx="8.6" ry="4.5"/><path class="st2" d="M62.4 21.7c-2.6 3.5-3.5 7.8-3 11.9 3.7-.4 7.3-2.4 9.9-5.9 2.6-3.5 3.5-7.8 3-11.9-3.8.4-7.4 2.4-9.9 5.9z"/><ellipse transform="rotate(-75.765 75.071 58.005)" class="st2" cx="75.1" cy="58" rx="3.8" ry="6.9"/><path class="st2" d="M83.9 40.8c-2.4.6-4.2 2.4-5.3 4.8 1.9 1.6 4.3 2.4 6.6 1.8 2.4-.6 4.2-2.4 5.3-4.8-1.9-1.6-4.3-2.4-6.6-1.8zM54.9 8c-2 1.5-3.2 3.7-3.3 6.1 0 2.5 1.1 4.7 3 6.3 2-1.5 3.2-3.7 3.3-6.1 0-2.5-1.1-4.7-3-6.3zm23.7 18c-2 1.6-3.1 4.1-3.3 6.8 2.4.7 4.9.4 6.9-1.2s3.1-4.1 3.3-6.8c-2.3-.7-4.9-.4-6.9 1.2z"/><ellipse transform="rotate(-40.182 59.276 64.068)" class="st2" cx="59.3" cy="64.1" rx="4.4" ry="8.9"/><ellipse transform="rotate(-59.437 34.642 47.321)" class="st2" cx="34.6" cy="47.3" rx="4.5" ry="8.6"/><ellipse transform="rotate(-35.055 31.915 24.686)" class="st2" cx="31.9" cy="24.7" rx="4.5" ry="11"/><ellipse transform="rotate(-14.234 22.588 57.998)" class="st2" cx="22.6" cy="58" rx="6.9" ry="3.8"/><path class="st2" d="M13.8 40.8c2.4.6 4.2 2.4 5.3 4.8-1.9 1.6-4.3 2.4-6.6 1.8-2.4-.6-4.2-2.4-5.3-4.8 1.9-1.6 4.3-2.4 6.6-1.8zM42.8 8c2 1.5 3.2 3.7 3.3 6.1 0 2.5-1.1 4.7-3 6.3-2-1.5-3.2-3.7-3.3-6.1-.1-2.5 1.1-4.7 3-6.3zM19.1 26c2 1.6 3.1 4.1 3.3 6.8-2.4.7-4.9.4-6.9-1.2s-3.1-4.1-3.3-6.8c2.3-.7 4.8-.4 6.9 1.2z"/><ellipse transform="rotate(-49.819 38.38 64.13)" class="st2" cx="38.4" cy="64.1" rx="8.9" ry="4.4"/></g><path d="M133.1 59.9c0-2.2-.9-4-2.6-5.4-1.7-1.4-4.7-2.8-8.8-4-4.6-1.2-8-2.8-10.4-4.7-2.4-1.9-3.6-4.4-3.6-7.6 0-3.3 1.3-5.9 4-8 2.7-2.1 6-3.1 10.2-3.1 4.3 0 7.8 1.2 10.5 3.6s3.9 5.4 3.8 9l-.1.2h-3.3c0-2.8-1-5.1-3.1-7-2-1.9-4.7-2.8-7.9-2.8-3.3 0-5.9.8-7.8 2.4-1.9 1.6-2.8 3.5-2.8 5.8 0 2.2.9 4 2.6 5.3 1.7 1.4 4.7 2.7 9 3.9 4.5 1.3 7.9 2.9 10.3 4.8 2.4 1.9 3.5 4.5 3.5 7.6 0 3.3-1.4 6-4.1 8-2.8 2-6.2 3-10.4 3s-7.9-1.1-11-3.2c-3.1-2.1-4.6-5.3-4.5-9.4l.1-.2h3.3c0 3.3 1.2 5.8 3.7 7.4 2.5 1.6 5.3 2.4 8.5 2.4 3.3 0 5.9-.7 8-2.2s2.9-3.5 2.9-5.8zm42.1-32.3v28.3c0 4.7-1.4 8.3-4.3 11s-6.6 4-11.1 4-8.1-1.3-10.9-4c-2.8-2.6-4.2-6.3-4.2-11V27.6h3.5v28.3c0 3.7 1.1 6.6 3.3 8.7 2.2 2.2 5 3.2 8.4 3.2 3.5 0 6.3-1.1 8.6-3.2 2.2-2.1 3.3-5.1 3.3-8.8V27.6h3.4zm40.6 36.9c-.9 1.5-2.7 3-5.2 4.3-2.5 1.3-5.7 2-9.6 2-4.9 0-8.9-1.7-12-5.1-3.1-3.4-4.7-7.8-4.7-13.1v-7.8c0-5.3 1.5-9.6 4.5-12.9 3-3.3 6.9-5 11.7-5 4.6 0 8.3 1.2 11 3.7 2.7 2.4 4 5.5 4 9.3l-.1.2h-3.2c0-2.9-1-5.4-3-7.3-2-1.9-4.9-2.9-8.6-2.9-3.8 0-6.9 1.4-9.3 4.2-2.3 2.8-3.5 6.3-3.5 10.7v7.9c0 4.5 1.2 8.1 3.7 11 2.4 2.9 5.6 4.3 9.6 4.3 3 0 5.4-.4 7.3-1.3 1.9-.9 3.2-1.9 4-3.1V52.5h-11.5v-3h15v15zm33.3-6.2h-18.7l-4.3 11.9h-3.6l15.7-42.7h3.3L257 70.2h-3.6l-4.3-11.9zm-17.6-3.1H248l-8.1-22.6h-.2l-8.2 22.6zm35.5-4.3v19.3h-3.5V27.6h14.2c4.6 0 8.1 1 10.5 3 2.4 2 3.7 4.9 3.7 8.8 0 2.3-.6 4.3-1.9 6.1s-3.1 3.1-5.5 3.9c2.6.7 4.5 1.9 5.7 3.6 1.2 1.7 1.7 3.9 1.7 6.4v4c0 1.3.2 2.5.5 3.6s.8 1.9 1.6 2.6v.7h-3.6c-.7-.7-1.2-1.7-1.5-3-.3-1.3-.4-2.6-.4-4v-3.9c0-2.6-.8-4.7-2.5-6.2s-4-2.3-7.1-2.3H267zm0-2.9h10.3c3.8 0 6.7-.8 8.4-2.3s2.7-3.6 2.7-6.3c0-2.8-.9-5-2.7-6.5-1.8-1.5-4.4-2.3-8-2.3H267V48zm34.8 22.2V27.6h14c4.7 0 8.4 1 11 2.9 2.7 1.9 4 4.8 4 8.7 0 1.9-.5 3.6-1.6 5.1-1.1 1.5-2.5 2.6-4.4 3.4 2.7.4 4.8 1.6 6.3 3.5s2.2 4.2 2.2 6.7c0 4-1.3 7-3.9 9.1s-6.2 3.1-10.8 3.1h-16.8zm7.1-24.7h7.6c2.2 0 4-.5 5.2-1.6 1.3-1 1.9-2.5 1.9-4.4 0-2.1-.7-3.7-2-4.7s-3.3-1.5-5.9-1.5h-6.9v12.2zm0 5.3v13.7h9.6c2.5 0 4.4-.6 5.7-1.7 1.3-1.1 2-2.7 2-4.9 0-2.1-.7-3.9-2-5.1-1.3-1.3-3.1-1.9-5.5-2h-9.8zm53.3 9.5h-15.1l-3.3 10h-7.4l14.9-42.7h6.8l14.7 42.7h-7.4l-3.2-10zm-13.2-6h11.2l-5.5-16.8h-.2L349 54.3zm36.2 10.2h20v5.7h-27.1V27.6h7.1v36.9zm48.8-4.2h-15.1l-3.3 10h-7.4l14.9-42.7h6.8l14.7 42.7h-7.4l-3.2-10zm-13.2-6H432l-5.5-16.8h-.2l-5.5 16.8zm62.3 15.9H476l-18.9-30.7-.2.1v30.7h-7.1V27.6h7.1l18.9 30.7.2-.1V27.6h7.1v42.6zm40.2-13.9l.1.2c.1 4.3-1.3 7.8-4.2 10.4-2.9 2.6-6.7 4-11.6 4-5 0-9-1.7-12.1-5-3.1-3.3-4.6-7.6-4.6-12.8V45c0-5.2 1.5-9.5 4.6-12.8s7-5.1 11.9-5.1c5 0 9 1.3 11.9 3.8 2.9 2.6 4.3 6.1 4.2 10.5l-.1.2h-6.9c0-2.9-.8-5-2.3-6.5-1.5-1.5-3.8-2.3-6.8-2.3-2.9 0-5.2 1.1-6.9 3.4-1.7 2.3-2.5 5.2-2.5 8.7V53c0 3.5.9 6.5 2.6 8.7 1.7 2.3 4.1 3.4 7 3.4 2.9 0 5.1-.8 6.6-2.3s2.3-3.7 2.3-6.6h6.8zM554 51h-16.7v13.5H557v5.7h-26.8V27.6h26.6v5.7h-19.5v12H554V51z" fill="#009a97"/></svg>